#define test_9x4_width 9
#define test_9x4_height 4
static unsigned char test_9x4_bits[] = {
   0xff, 0x01, 0x00, 0x01, 0xff, 0x01, 0x11, 0x01 };
